<svg width="70" height="70" viewBox="0 0 70 70" fill="none" xmlns="http://www.w3.org/2000/svg">
<path d="M35 20.4167V8.75H5.83331V61.25H64.1666V20.4167H35ZM17.5 55.4167H11.6666V49.5833H17.5V55.4167ZM17.5 43.75H11.6666V37.9167H17.5V43.75ZM17.5 32.0833H11.6666V26.25H17.5V32.0833ZM17.5 20.4167H11.6666V14.5833H17.5V20.4167ZM29.1666 55.4167H23.3333V49.5833H29.1666V55.4167ZM29.1666 43.75H23.3333V37.9167H29.1666V43.75ZM29.1666 32.0833H23.3333V26.25H29.1666V32.0833ZM29.1666 20.4167H23.3333V14.5833H29.1666V20.4167ZM58.3333 55.4167H35V49.5833H40.8333V43.75H35V37.9167H40.8333V32.0833H35V26.25H58.3333V55.4167ZM52.5 32.0833H46.6666V37.9167H52.5V32.0833ZM52.5 43.75H46.6666V49.5833H52.5V43.75Z" fill="black"/>
</svg>
