<svg width="70" height="70" viewBox="0 0 70 70" fill="none" xmlns="http://www.w3.org/2000/svg">
<path d="M22.0063 39.1125C22.6799 39.2755 23.3695 39.3635 24.0625 39.375C25.8002 39.3745 27.4984 38.8567 28.9406 37.8875L35.9844 44.1656C35.4264 45.2252 35.0989 46.3909 35.0235 47.586C34.9481 48.7811 35.1265 49.9787 35.5469 51.1C35.9884 52.3705 36.717 53.5221 37.6758 54.4653C38.6347 55.4085 39.7982 56.118 41.0757 56.5386C42.3533 56.9592 43.7107 57.0796 45.0424 56.8905C46.374 56.7013 47.6442 56.2077 48.7541 55.448C49.864 54.6883 50.7839 53.6829 51.4422 52.51C52.1005 51.3371 52.4796 50.0282 52.5499 48.685C52.6203 47.3418 52.38 46.0005 51.8478 44.7652C51.3156 43.5299 50.5058 42.434 49.4813 41.5625L55.0375 30.4281C56.122 30.6727 57.2447 30.6961 58.3384 30.4969C59.4322 30.2977 60.4745 29.88 61.4031 29.2688C62.9801 28.3063 64.212 26.8695 64.9223 25.164C65.6326 23.4586 65.7849 21.5721 65.3574 19.7748C64.9298 17.9774 63.9443 16.3616 62.5421 15.1587C61.1399 13.9558 59.393 13.2276 57.5516 13.0784C55.7101 12.9292 53.8687 13.3667 52.2912 14.3281C50.7136 15.2896 49.4809 16.7257 48.7695 18.4307C48.0582 20.1358 47.9048 22.0222 48.3313 23.8198C48.7578 25.6173 49.7423 27.2338 51.1437 28.4375L45.5875 39.5719C44.9837 39.4416 44.3677 39.3756 43.75 39.375C42.0123 39.3755 40.3141 39.8933 38.8719 40.8625L31.8281 34.5844C32.3861 33.5248 32.7136 32.3591 32.789 31.164C32.8644 29.9689 32.686 28.7713 32.2656 27.65C31.8273 26.3887 31.1062 25.2445 30.1574 24.305C29.2087 23.3654 28.0575 22.6555 26.792 22.2295C25.5265 21.8035 24.1803 21.6728 22.8565 21.8474C21.5327 22.0219 20.2665 22.4972 19.1547 23.2366C18.0429 23.9761 17.1151 24.9602 16.4423 26.1136C15.7696 27.267 15.3697 28.559 15.2733 29.8908C15.1769 31.2225 15.3866 32.5587 15.8863 33.7969C16.386 35.0351 17.1625 36.1425 18.1563 37.0344L8.75 54.6875V4.375H4.375V61.25C4.375 62.4103 4.83594 63.5231 5.65641 64.3436C6.47688 65.1641 7.58968 65.625 8.75 65.625H65.625V61.25H10.2156L22.0063 39.1125ZM56.875 17.5C57.7403 17.5 58.5862 17.7566 59.3056 18.2373C60.0251 18.7181 60.5858 19.4013 60.917 20.2008C61.2481 21.0002 61.3347 21.8799 61.1659 22.7285C60.9971 23.5772 60.5804 24.3567 59.9686 24.9686C59.3567 25.5804 58.5772 25.9971 57.7285 26.1659C56.8799 26.3347 56.0002 26.2481 55.2008 25.917C54.4013 25.5858 53.7181 25.0251 53.2373 24.3056C52.7566 23.5862 52.5 22.7403 52.5 21.875C52.5 20.7147 52.9609 19.6019 53.7814 18.7814C54.6019 17.9609 55.7147 17.5 56.875 17.5ZM48.125 48.125C48.125 48.9903 47.8684 49.8362 47.3877 50.5556C46.9069 51.2751 46.2237 51.8358 45.4242 52.167C44.6248 52.4981 43.7451 52.5847 42.8965 52.4159C42.0478 52.2471 41.2683 51.8304 40.6564 51.2186C40.0446 50.6067 39.6279 49.8272 39.4591 48.9785C39.2903 48.1299 39.3769 47.2502 39.708 46.4508C40.0392 45.6513 40.5999 44.9681 41.3194 44.4873C42.0388 44.0066 42.8847 43.75 43.75 43.75C44.9103 43.75 46.0231 44.2109 46.8436 45.0314C47.6641 45.8519 48.125 46.9647 48.125 48.125ZM24.0625 26.25C24.9278 26.25 25.7737 26.5066 26.4931 26.9873C27.2126 27.4681 27.7733 28.1513 28.1045 28.9508C28.4356 29.7502 28.5222 30.6299 28.3534 31.4785C28.1846 32.3272 27.7679 33.1067 27.1561 33.7186C26.5442 34.3304 25.7647 34.7471 24.916 34.9159C24.0674 35.0847 23.1877 34.9981 22.3883 34.667C21.5888 34.3358 20.9056 33.7751 20.4248 33.0556C19.9441 32.3362 19.6875 31.4903 19.6875 30.625C19.6875 29.4647 20.1484 28.3519 20.9689 27.5314C21.7894 26.7109 22.9022 26.25 24.0625 26.25Z" fill="black"/>
</svg>
