<svg width="70" height="70" viewBox="0 0 70 70" fill="none" xmlns="http://www.w3.org/2000/svg">
<path d="M17.5 8.75V17.5H8.75V8.75H17.5ZM4.375 4.375V21.875H21.875V4.375H4.375ZM39.375 15.3125V24.0625H30.625V15.3125H39.375ZM26.25 10.9375V28.4375H43.75V10.9375H26.25ZM17.5 35V43.75H8.75V35H17.5ZM4.375 30.625V48.125H21.875V30.625H4.375Z" fill="black"/>
<path d="M48.125 21.875V35H35V48.125H21.875V65.625H65.625V21.875H48.125ZM39.375 39.375H48.125V48.125H39.375V39.375ZM35 61.25H26.25V52.5H35V61.25ZM48.125 61.25H39.375V52.5H48.125V61.25ZM61.25 61.25H52.5V52.5H61.25V61.25ZM61.25 48.125H52.5V39.375H61.25V48.125ZM52.5 35V26.25H61.25V35H52.5Z" fill="black"/>
</svg>
