<svg width="70" height="70" viewBox="0 0 70 70" fill="none" xmlns="http://www.w3.org/2000/svg">
<path d="M17.5 26.25H8.75001C7.14584 26.25 5.83334 24.9375 5.83334 23.3333C5.83334 21.7292 7.14584 20.4167 8.75001 20.4167H17.5C19.1042 20.4167 20.4167 21.7292 20.4167 23.3333C20.4167 24.9375 19.1042 26.25 17.5 26.25ZM17.5 35H8.75001C7.14584 35 5.83334 36.3125 5.83334 37.9167C5.83334 39.5208 7.14584 40.8333 8.75001 40.8333H17.5C19.1042 40.8333 20.4167 39.5208 20.4167 37.9167C20.4167 36.3125 19.1042 35 17.5 35ZM57.9833 53.3458L48.8833 44.2458C46.375 45.8792 43.3708 46.8125 40.1333 46.6375C33.2208 46.3167 27.3 40.9208 26.3667 34.0667C26.0586 31.7885 26.2921 29.4699 27.0482 27.2989C27.8042 25.1279 29.0615 23.1658 30.718 21.5719C32.3745 19.9779 34.3835 18.797 36.5819 18.1249C38.7803 17.4529 41.1062 17.3088 43.3708 17.7042C49.0583 18.6667 53.7833 23.1 55.0375 28.7292C56 32.9875 55.0667 36.9542 52.9958 40.1042L62.125 49.2333C63.2625 50.3708 63.2625 52.2083 62.125 53.3458C60.9875 54.4833 59.1208 54.4833 57.9833 53.3458ZM49.5833 32.0833C49.5833 27.2708 45.6458 23.3333 40.8333 23.3333C36.0208 23.3333 32.0833 27.2708 32.0833 32.0833C32.0833 36.8958 36.0208 40.8333 40.8333 40.8333C45.6458 40.8333 49.5833 36.8958 49.5833 32.0833ZM8.75001 55.4167H32.0833C33.6875 55.4167 35 54.1042 35 52.5C35 50.8958 33.6875 49.5833 32.0833 49.5833H8.75001C7.14584 49.5833 5.83334 50.8958 5.83334 52.5C5.83334 54.1042 7.14584 55.4167 8.75001 55.4167Z" fill="black"/>
</svg>
