<svg width="70" height="70" viewBox="0 0 70 70" fill="none" xmlns="http://www.w3.org/2000/svg">
<path d="M29.5312 51.4062C29.5312 53.1368 29.0181 54.8286 28.0566 56.2675C27.0951 57.7064 25.7286 58.8279 24.1297 59.4902C22.5309 60.1525 20.7715 60.3257 19.0742 59.9881C17.3769 59.6505 15.8178 58.8171 14.5941 57.5934C13.3704 56.3697 12.537 54.8106 12.1994 53.1133C11.8618 51.416 12.035 49.6566 12.6973 48.0578C13.3596 46.4589 14.4811 45.0924 15.92 44.1309C17.3589 43.1694 19.0507 42.6562 20.7812 42.6562C23.1019 42.6562 25.3275 43.5781 26.9684 45.2191C28.6094 46.86 29.5312 49.0856 29.5312 51.4062ZM14.6727 32.1727L18.5937 28.2488L22.5148 32.1727C22.9253 32.5831 23.482 32.8137 24.0625 32.8137C24.643 32.8137 25.1997 32.5831 25.6102 32.1727C26.0206 31.7622 26.2512 31.2055 26.2512 30.625C26.2512 30.0445 26.0206 29.4878 25.6102 29.0773L21.6863 25.1562L25.6102 21.2352C26.0206 20.8247 26.2512 20.268 26.2512 19.6875C26.2512 19.107 26.0206 18.5503 25.6102 18.1398C25.1997 17.7294 24.643 17.4988 24.0625 17.4988C23.482 17.4988 22.9253 17.7294 22.5148 18.1398L18.5937 22.0637L14.6727 18.1398C14.2622 17.7294 13.7055 17.4988 13.125 17.4988C12.5445 17.4988 11.9878 17.7294 11.5773 18.1398C11.1669 18.5503 10.9363 19.107 10.9363 19.6875C10.9363 20.268 11.1669 20.8247 11.5773 21.2352L15.5012 25.1562L11.5773 29.0773C11.1669 29.4878 10.9363 30.0445 10.9363 30.625C10.9363 31.2055 11.1669 31.7622 11.5773 32.1727C11.9878 32.5831 12.5445 32.8137 13.125 32.8137C13.7055 32.8137 14.2622 32.5831 14.6727 32.1727ZM58.8738 51.4062L62.7977 47.4852C63.2081 47.0747 63.4387 46.518 63.4387 45.9375C63.4387 45.357 63.2081 44.8003 62.7977 44.3898C62.3872 43.9794 61.8305 43.7488 61.25 43.7488C60.6695 43.7488 60.1128 43.9794 59.7023 44.3898L55.7812 48.3137L51.8602 44.3898C51.4497 43.9794 50.893 43.7488 50.3125 43.7488C49.732 43.7488 49.1753 43.9794 48.7648 44.3898C48.3544 44.8003 48.1238 45.357 48.1238 45.9375C48.1238 46.518 48.3544 47.0747 48.7648 47.4852L52.6887 51.4062L48.7648 55.3273C48.3544 55.7378 48.1238 56.2945 48.1238 56.875C48.1238 57.4555 48.3544 58.0122 48.7648 58.4227C49.1753 58.8331 49.732 59.0637 50.3125 59.0637C50.893 59.0637 51.4497 58.8331 51.8602 58.4227L55.7812 54.4988L59.7023 58.4227C59.9056 58.6259 60.1469 58.7871 60.4124 58.8971C60.678 59.0071 60.9626 59.0637 61.25 59.0637C61.5374 59.0637 61.822 59.0071 62.0876 58.8971C62.3531 58.7871 62.5944 58.6259 62.7977 58.4227C63.0009 58.2194 63.1621 57.9781 63.2721 57.7126C63.3821 57.447 63.4387 57.1624 63.4387 56.875C63.4387 56.5876 63.3821 56.303 63.2721 56.0374C63.1621 55.7719 63.0009 55.5306 62.7977 55.3273L58.8738 51.4062ZM45.2977 13.7648L44.6551 13.125H50.3125C50.8927 13.125 51.4491 12.8945 51.8593 12.4843C52.2695 12.0741 52.5 11.5177 52.5 10.9375C52.5 10.3573 52.2695 9.80094 51.8593 9.3907C51.4491 8.98047 50.8927 8.75 50.3125 8.75H39.375C38.7948 8.75 38.2384 8.98047 37.8282 9.3907C37.418 9.80094 37.1875 10.3573 37.1875 10.9375V21.875C37.1875 22.4552 37.418 23.0116 37.8282 23.4218C38.2384 23.832 38.7948 24.0625 39.375 24.0625C39.9552 24.0625 40.5116 23.832 40.9218 23.4218C41.332 23.0116 41.5625 22.4552 41.5625 21.875V16.2176L42.2023 16.8602C47.1051 21.7629 47.0969 26.5398 46.2246 29.6844C44.9559 34.2699 40.9309 38.3715 36.6543 39.4406C36.1364 39.5704 35.6839 39.8851 35.382 40.3254C35.0801 40.7657 34.9496 41.3013 35.0151 41.8311C35.0807 42.361 35.3378 42.8485 35.7379 43.202C36.138 43.5554 36.6536 43.7503 37.1875 43.75C37.3673 43.7501 37.5463 43.7281 37.7207 43.6844C43.5203 42.2352 48.7539 36.9578 50.4437 30.852C52.1117 24.8227 50.2852 18.7551 45.2977 13.7648Z" fill="black"/>
</svg>
