<svg width="53" height="61" viewBox="0 0 53 61" fill="none" xmlns="http://www.w3.org/2000/svg">
<path d="M36.4583 38.0208C36.4583 44.1042 29.1667 48.6667 29.1667 53.2292H23.3333C23.3333 48.6667 16.0417 44.1042 16.0417 38.0208C16.0417 32.1504 20.6208 27.375 26.25 27.375C31.8792 27.375 36.4583 32.1504 36.4583 38.0208ZM29.1667 56.2708H23.3333V60.8333H29.1667V56.2708ZM46.6667 36.5C46.6667 41.61 44.9458 46.2637 42.0583 49.9442L46.2 54.2633C48.4419 51.5336 50.1452 48.3693 51.2122 44.9518C52.2792 41.5343 52.689 37.9308 52.418 34.3478C52.1471 30.7649 51.2007 27.2729 49.6332 24.0721C48.0657 20.8712 45.9078 18.0245 43.2833 15.695L39.1417 20.0142C41.4898 22.0082 43.3832 24.5219 44.6847 27.3732C45.9862 30.2245 46.6632 33.3421 46.6667 36.5ZM37.9167 12.1667L26.25 0V9.125C19.2881 9.125 12.6113 12.0091 7.68845 17.143C2.76562 22.2768 0 29.2397 0 36.5C0 43.2829 2.39167 49.4879 6.3 54.2633L10.4417 49.9442C7.45484 46.157 5.82548 41.4035 5.83333 36.5C5.83333 24.7592 14.9917 15.2083 26.25 15.2083V24.3333L37.9167 12.1667Z" fill="black"/>
</svg>
